<svg id="Layer_2" data-name="Layer 2" xmlns="http://www.w3.org/2000/svg" viewBox="0 0 729.5 85.5"><defs><style>.cls-1{fill:#a3c6c4;stroke:#a3c6c4;stroke-miterlimit:10;}</style></defs><path class="cls-1" d="M524.56,569.79V561a2,2,0,0,0-2.07-2c-6.28.49-25,4.19-29.66,30.46-5.42,30.28,17.1,42.35,30,47.47a1.3,1.3,0,0,0,1.74-1.26v-9.27a2.15,2.15,0,0,0-1.54-2.09c-4.76-1.35-18.86-6.91-18.86-25.46,0-19.64,15.81-26.54,19.6-27.91A1.24,1.24,0,0,0,524.56,569.79Z" transform="translate(-491.5 -558.5)"/><path class="cls-1" d="M528,595.56v9.16a2.34,2.34,0,0,0,2.3,2.38h20a1.42,1.42,0,0,1,1.38,1.66c-.57,3.65-3.17,12.29-15,15.51a2.56,2.56,0,0,0-1.87,2.48v7.64a2.73,2.73,0,0,0,3.21,2.75c8.49-1.76,30.89-9.54,29.72-42.74A1.42,1.42,0,0,0,566.3,593H530.43A2.51,2.51,0,0,0,528,595.56Z" transform="translate(-491.5 -558.5)"/><path class="cls-1" d="M551.76,607.1" transform="translate(-491.5 -558.5)"/><path class="cls-1" d="M535.9,560.65v8.52a1.49,1.49,0,0,0,1.37,1.52c3,.18,10,1.65,15.27,11.09a1.24,1.24,0,0,0,1.08.66h9.14a1.12,1.12,0,0,0,1-1.49c-1.65-5-8.3-21-26.2-22A1.62,1.62,0,0,0,535.9,560.65Z" transform="translate(-491.5 -558.5)"/><path class="cls-1" d="M591.44,594.66v41a2,2,0,0,0,1.93,2h7.8a1.62,1.62,0,0,0,1.6-1.65V594.66a1.62,1.62,0,0,0-1.6-1.65H593A1.62,1.62,0,0,0,591.44,594.66Z" transform="translate(-491.5 -558.5)"/><path class="cls-1" d="M592.86,582.44h8.48a1.45,1.45,0,0,0,1.43-1.48V561.61a1.45,1.45,0,0,0-1.43-1.48h-8.48a1.45,1.45,0,0,0-1.42,1.48V581A1.45,1.45,0,0,0,592.86,582.44Z" transform="translate(-491.5 -558.5)"/><path class="cls-1" d="M633.37,563.52v70.72a3.34,3.34,0,0,0,3.28,3.39h4.78a3.34,3.34,0,0,0,3.28-3.39V563.52a3.34,3.34,0,0,0-3.28-3.39h-4.78A3.34,3.34,0,0,0,633.37,563.52Z" transform="translate(-491.5 -558.5)"/><path class="cls-1" d="M654.91,628.1v6.14a3.33,3.33,0,0,0,3.27,3.39h20.66a3.33,3.33,0,0,0,3.27-3.39V628.1a3.33,3.33,0,0,0-3.27-3.39H658.18A3.33,3.33,0,0,0,654.91,628.1Z" transform="translate(-491.5 -558.5)"/><path class="cls-1" d="M705.91,628.82v4.7a4,4,0,0,0,4,4.11h47.61a4,4,0,0,0,4-4.11v-4.7a4,4,0,0,0-4-4.11H709.88A4,4,0,0,0,705.91,628.82Z" transform="translate(-491.5 -558.5)"/><path class="cls-1" d="M705.91,600.64v-3.52a4,4,0,0,1,4-4.11H753a4,4,0,0,1,4,4.11v3.52a4,4,0,0,1-4,4.11H709.88A4,4,0,0,1,705.91,600.64Z" transform="translate(-491.5 -558.5)"/><path class="cls-1" d="M705.91,568.94v-4.7a4,4,0,0,1,4-4.11h47.61a4,4,0,0,1,4,4.11v4.7a4,4,0,0,1-4,4.11H709.88A4,4,0,0,1,705.91,568.94Z" transform="translate(-491.5 -558.5)"/><path class="cls-1" d="M1165,634.69v4.7a4,4,0,0,0,4,4.11h47.6a4,4,0,0,0,4-4.11v-4.7a4,4,0,0,0-4-4.11h-47.6A4,4,0,0,0,1165,634.69Z" transform="translate(-491.5 -558.5)"/><path class="cls-1" d="M1165,606.51V603a4,4,0,0,1,4-4.11H1212a4,4,0,0,1,4,4.11v3.52a4,4,0,0,1-4,4.11h-43.07A4,4,0,0,1,1165,606.51Z" transform="translate(-491.5 -558.5)"/><path class="cls-1" d="M1165,574.81v-4.7a4,4,0,0,1,4-4.11h47.6a4,4,0,0,1,4,4.11v4.7a4,4,0,0,1-4,4.11h-47.6A4,4,0,0,1,1165,574.81Z" transform="translate(-491.5 -558.5)"/><path class="cls-1" d="M852.12,574.47a10.81,10.81,0,0,1,8.54,8.36,4.2,4.2,0,0,0,4,3.13h2.43a4.34,4.34,0,0,0,4-5.81c-2.12-6.34-7-15.8-17.63-17.46a4.22,4.22,0,0,0-4.72,4.32v3.2A4.31,4.31,0,0,0,852.12,574.47Z" transform="translate(-491.5 -558.5)"/><path class="cls-1" d="M838.53,570.23v-3.51a4.26,4.26,0,0,0-4.44-4.35c-4.9.33-12.68,2.28-17.1,10.68s1.06,18.38,1.68,19.48a23.77,23.77,0,0,0,1.91,2.84c.37.46.69.8,1.74,2a3.79,3.79,0,0,0,.74.65c1.14.78,2.57,1.68,4.26,2.61.56.3,1.67.9,3.11,1.56a59,59,0,0,0,7,2.6,90.88,90.88,0,0,0,9.07,2.35,43.2,43.2,0,0,1,5.47,1.44c.23.07,1.47.49,2.47.91.66.28,6.45,2.88,7.48,5.44,1.7,4.24-2.21,10.23-5.76,12.16a13,13,0,0,1-3.63,1.23h-.08a4.34,4.34,0,0,0-3.68,4.32v2.94a4.25,4.25,0,0,0,4.62,4.33c6.07-.72,16.41-4.14,20.31-18.69,0,0,5.64-22.18-22.42-24.64a4.13,4.13,0,0,1-.49-.07c-5.52-1.18-7.28-2.73-11.87-5.06s-8.81-4.19-9-4.51a11.09,11.09,0,0,1-1.45-2.9,7.46,7.46,0,0,1-.3-3.68c.52-2.4,2.57-3.71,3.72-4.45a10.67,10.67,0,0,1,3.33-1.39A4.36,4.36,0,0,0,838.53,570.23Z" transform="translate(-491.5 -558.5)"/><path class="cls-1" d="M820.62,614.15h-4.93a4.31,4.31,0,0,0-4.15,5c1.85,13.05,13.6,18,20.61,19.82a4.25,4.25,0,0,0,5.24-4.22v-3.16a4.32,4.32,0,0,0-2.87-4.13c-3.5-1.15-9-3.87-9.75-9.69A4.2,4.2,0,0,0,820.62,614.15Z" transform="translate(-491.5 -558.5)"/><path class="cls-1" d="M850.75,596.52" transform="translate(-491.5 -558.5)"/><path class="cls-1" d="M891.8,567.24v4.57a2.37,2.37,0,0,0,2.33,2.41H904.2a2.37,2.37,0,0,0,2.33-2.41v-4.57a2.37,2.37,0,0,0-2.33-2.41H894.13A2.37,2.37,0,0,0,891.8,567.24Z" transform="translate(-491.5 -558.5)"/><path class="cls-1" d="M919.76,564.83h34.38v9.39H929.2V640H915.6V569.13A4.23,4.23,0,0,1,919.76,564.83Z" transform="translate(-491.5 -558.5)"/><path class="cls-1" d="M1004,567.68v7.09a2.4,2.4,0,0,1-1.6,2.28c-4.82,1.62-18.8,7.85-18.8,25.35s14.2,24.65,18.91,26.48a2.39,2.39,0,0,1,1.49,2.24v8.06a2.32,2.32,0,0,1-3,2.28c-8.64-2.82-32.87-13.18-31-40.23,1.85-26.89,23.42-34.15,31.21-35.9A2.33,2.33,0,0,1,1004,567.68Z" transform="translate(-491.5 -558.5)"/><path class="cls-1" d="M1014.21,567.68v7.09a2.4,2.4,0,0,0,1.61,2.28c4.81,1.62,18.79,7.85,18.79,25.35s-14.2,24.65-18.91,26.48a2.39,2.39,0,0,0-1.49,2.24v8.06a2.32,2.32,0,0,0,3,2.28c8.64-2.82,32.87-13.18,31-40.23-1.86-26.89-23.43-34.15-31.22-35.9A2.33,2.33,0,0,0,1014.21,567.68Z" transform="translate(-491.5 -558.5)"/><rect class="cls-1" x="579.38" y="60.34" width="11.33" height="23.48"/><polygon class="cls-1" points="579.38 8.68 594.12 8.68 630.39 60.34 631.52 8.68 645.13 8.68 645.13 83.83 631.52 83.83 579.38 8.68"/></svg>